<svg width="26" height="18" viewBox="0 0 26 18" fill="none" xmlns="http://www.w3.org/2000/svg">
<path d="M17.375 12.5C17.1429 12.5 16.9204 12.5922 16.7563 12.7563C16.5922 12.9204 16.5 13.1429 16.5 13.375C16.5 13.6071 16.5922 13.8296 16.7563 13.9937C16.9204 14.1578 17.1429 14.25 17.375 14.25H20.875C21.1071 14.25 21.3296 14.1578 21.4937 13.9937C21.6578 13.8296 21.75 13.6071 21.75 13.375C21.75 13.1429 21.6578 12.9204 21.4937 12.7563C21.3296 12.5922 21.1071 12.5 20.875 12.5H17.375ZM0.75 4.625C0.75 3.46468 1.21094 2.35188 2.03141 1.53141C2.85188 0.710936 3.96468 0.25 5.125 0.25H20.875C22.0353 0.25 23.1481 0.710936 23.9686 1.53141C24.7891 2.35188 25.25 3.46468 25.25 4.625V13.375C25.25 14.5353 24.7891 15.6481 23.9686 16.4686C23.1481 17.2891 22.0353 17.75 20.875 17.75H5.125C3.96468 17.75 2.85188 17.2891 2.03141 16.4686C1.21094 15.6481 0.75 14.5353 0.75 13.375V4.625ZM23.5 5.5V4.625C23.5 3.92881 23.2234 3.26113 22.7312 2.76884C22.2389 2.27656 21.5712 2 20.875 2H5.125C4.42881 2 3.76113 2.27656 3.26884 2.76884C2.77656 3.26113 2.5 3.92881 2.5 4.625V5.5H23.5ZM2.5 7.25V13.375C2.5 14.0712 2.77656 14.7389 3.26884 15.2312C3.76113 15.7234 4.42881 16 5.125 16H20.875C21.5712 16 22.2389 15.7234 22.7312 15.2312C23.2234 14.7389 23.5 14.0712 23.5 13.375V7.25H2.5Z" fill="#F8F8F8"/>
</svg>
