<svg width="21" height="21" viewBox="0 0 21 21" fill="none" xmlns="http://www.w3.org/2000/svg">
<path d="M3.85 10L3.55 8.5C3.35 8.41667 3.16267 8.32933 2.988 8.238C2.81333 8.14667 2.634 8.034 2.45 7.9L1 8.35L0 6.65L1.15 5.65C1.11667 5.43333 1.1 5.21667 1.1 5C1.1 4.78333 1.11667 4.56667 1.15 4.35L0 3.35L1 1.65L2.45 2.1C2.63333 1.96667 2.81267 1.854 2.988 1.762C3.16333 1.67 3.35067 1.58267 3.55 1.5L3.85 0H5.85L6.15 1.5C6.35 1.58333 6.53767 1.671 6.713 1.763C6.88833 1.855 7.06733 1.96733 7.25 2.1L8.7 1.65L9.7 3.35L8.55 4.35C8.58333 4.56667 8.6 4.78333 8.6 5C8.6 5.21667 8.58333 5.43333 8.55 5.65L9.7 6.65L8.7 8.35L7.25 7.9C7.06667 8.03333 6.88767 8.146 6.713 8.238C6.53833 8.33 6.35067 8.41733 6.15 8.5L5.85 10H3.85ZM4.85 7C5.4 7 5.871 6.80433 6.263 6.413C6.655 6.02167 6.85067 5.55067 6.85 5C6.84933 4.44933 6.65367 3.97867 6.263 3.588C5.87233 3.19733 5.40133 3.00133 4.85 3C4.29867 2.99867 3.828 3.19467 3.438 3.588C3.048 3.98133 2.852 4.452 2.85 5C2.848 5.548 3.044 6.019 3.438 6.413C3.832 6.807 4.30267 7.00267 4.85 7ZM12.8 21L12.35 18.9C12.0667 18.8 11.8043 18.679 11.563 18.537C11.3217 18.395 11.084 18.2327 10.85 18.05L8.85 18.7L7.45 16.3L9.05 14.9C9.01667 14.6 9 14.3 9 14C9 13.7 9.01667 13.4 9.05 13.1L7.45 11.7L8.85 9.3L10.85 9.95C11.0833 9.76667 11.321 9.604 11.563 9.462C11.805 9.32 12.0673 9.19933 12.35 9.1L12.8 7H15.6L16.05 9.1C16.3333 9.2 16.596 9.321 16.838 9.463C17.08 9.605 17.3173 9.76733 17.55 9.95L19.55 9.3L20.95 11.7L19.35 13.1C19.3833 13.4 19.4 13.7 19.4 14C19.4 14.3 19.3833 14.6 19.35 14.9L20.95 16.3L19.55 18.7L17.55 18.05C17.3167 18.2333 17.0793 18.3957 16.838 18.537C16.5967 18.6783 16.334 18.7993 16.05 18.9L15.6 21H12.8ZM14.2 17C15.0333 17 15.7417 16.7083 16.325 16.125C16.9083 15.5417 17.2 14.8333 17.2 14C17.2 13.1667 16.9083 12.4583 16.325 11.875C15.7417 11.2917 15.0333 11 14.2 11C13.3667 11 12.6583 11.2917 12.075 11.875C11.4917 12.4583 11.2 13.1667 11.2 14C11.2 14.8333 11.4917 15.5417 12.075 16.125C12.6583 16.7083 13.3667 17 14.2 17Z" fill="#F8F8F8"/>
</svg>
