<svg width="28" height="20" viewBox="0 0 28 20" fill="none" xmlns="http://www.w3.org/2000/svg">
<path d="M19.2507 18.6248C19.2507 18.8569 19.1585 19.0795 18.9944 19.2435C18.8303 19.4076 18.6077 19.4998 18.3757 19.4998H2.62568C2.39362 19.4998 2.17106 19.4076 2.00697 19.2435C1.84287 19.0795 1.75068 18.8569 1.75068 18.6248C1.75068 18.3928 1.84287 18.1702 2.00697 18.0061C2.17106 17.842 2.39362 17.7498 2.62568 17.7498H18.3757C18.6077 17.7498 18.8303 17.842 18.9944 18.0061C19.1585 18.1702 19.2507 18.3928 19.2507 18.6248ZM27.5522 5.21546C27.5278 5.34023 27.4772 5.45839 27.4037 5.56211C27.3301 5.66582 27.2354 5.75271 27.1257 5.81702L10.5663 15.442C9.7554 15.9204 8.81067 16.1216 7.8752 16.015C6.93973 15.9084 6.06446 15.4999 5.38194 14.8514L1.2585 10.9905C1.04468 10.7936 0.883593 10.5463 0.789971 10.2712C0.696349 9.99607 0.673172 9.70186 0.72256 9.41546C0.77417 9.12799 0.896038 8.85775 1.07732 8.62876C1.2586 8.39977 1.49367 8.21915 1.76162 8.10296L3.58818 7.31546C3.81325 7.2276 4.06312 7.2276 4.28819 7.31546L6.946 8.46389L8.57569 7.52327L6.11475 5.31389C5.89903 5.11598 5.73606 4.86742 5.64058 4.59068C5.54509 4.31394 5.52011 4.01777 5.56788 3.72894C5.61566 3.44012 5.73469 3.16777 5.9142 2.93652C6.09371 2.70527 6.32804 2.52242 6.596 2.40452L8.40069 1.62796C8.59996 1.54996 8.81987 1.54224 9.02412 1.60608L15.2147 3.67327L19.721 1.01546C20.6209 0.480399 21.6835 0.287607 22.7141 0.47242C23.7446 0.657234 24.674 1.20727 25.3319 2.02171L27.3663 4.50452C27.447 4.60245 27.5054 4.71676 27.5375 4.83952C27.5696 4.96228 27.5747 5.09056 27.5522 5.21546ZM25.3647 4.82171L23.9757 3.12639C23.5789 2.63983 23.0209 2.31159 22.4028 2.20123C21.7847 2.09086 21.1476 2.20567 20.6069 2.52483L15.7616 5.37952C15.6538 5.4432 15.5335 5.48298 15.409 5.49619C15.2845 5.5094 15.1585 5.49572 15.0397 5.45608L8.79444 3.37796L7.296 4.01233L10.6538 7.04202C10.7553 7.13572 10.8337 7.2516 10.8831 7.3806C10.9324 7.50961 10.9513 7.64827 10.9382 7.78577C10.9217 7.92177 10.8736 8.052 10.7976 8.16598C10.7216 8.27997 10.6199 8.37452 10.5007 8.44202L7.43819 10.192C7.31951 10.2598 7.18705 10.3 7.05069 10.3094C6.91433 10.3189 6.7776 10.2975 6.65068 10.2467L3.93818 9.07639L2.45068 9.71077L6.57412 13.5826C6.98501 13.972 7.51159 14.2167 8.07408 14.2799C8.63657 14.343 9.20432 14.2211 9.69131 13.9326L25.3647 4.82171Z" fill="white"/>
</svg>
