<svg width="28" height="19" viewBox="0 0 28 19" fill="none" xmlns="http://www.w3.org/2000/svg">
<path d="M27.1367 7.11382V7.09194C27.1385 7.06594 27.1348 7.03985 27.1258 7.01538V6.98257C27.1258 6.96069 27.1148 6.93882 27.1148 6.91694V6.89507C27.1039 6.86226 27.1039 6.84038 27.093 6.80757H27.082L25.5508 2.97944C25.4226 2.6522 25.1982 2.37148 24.9073 2.17427C24.6164 1.97707 24.2725 1.87265 23.9211 1.87476H20.1367V0.999756C20.1367 0.767691 20.0445 0.545132 19.8804 0.381038C19.7163 0.216943 19.4938 0.124756 19.2617 0.124756H2.63672C2.17259 0.124756 1.72747 0.30913 1.39928 0.637319C1.07109 0.965508 0.886719 1.41063 0.886719 1.87476V14.1248C0.886719 14.5889 1.07109 15.034 1.39928 15.3622C1.72747 15.6904 2.17259 15.8748 2.63672 15.8748H4.05859C4.25136 16.6276 4.68921 17.2949 5.30311 17.7714C5.91702 18.248 6.67207 18.5066 7.44922 18.5066C8.22637 18.5066 8.98141 18.248 9.59532 17.7714C10.2092 17.2949 10.6471 16.6276 10.8398 15.8748H17.1836C17.3764 16.6276 17.8142 17.2949 18.4281 17.7714C19.042 18.248 19.7971 18.5066 20.5742 18.5066C21.3514 18.5066 22.1064 18.248 22.7203 17.7714C23.3342 17.2949 23.7721 16.6276 23.9648 15.8748H25.3867C25.8508 15.8748 26.296 15.6904 26.6242 15.3622C26.9523 15.034 27.1367 14.5889 27.1367 14.1248V7.12476V7.11382ZM23.9211 3.62476L24.9711 6.24976H20.1367V3.62476H23.9211ZM18.3867 1.87476V8.87476H2.63672V1.87476H18.3867ZM2.63672 10.6248H18.3867V12.2654C17.7985 12.7418 17.3771 13.393 17.1836 14.1248H10.8398C10.6471 13.3719 10.2092 12.7046 9.59532 12.2281C8.98141 11.7515 8.22637 11.4929 7.44922 11.4929C6.67207 11.4929 5.91702 11.7515 5.30311 12.2281C4.68921 12.7046 4.25136 13.3719 4.05859 14.1248H2.63672V10.6248ZM7.44922 16.7498C7.1031 16.7498 6.76476 16.6471 6.47697 16.4548C6.18919 16.2625 5.96488 15.9892 5.83243 15.6695C5.69998 15.3497 5.66532 14.9978 5.73284 14.6583C5.80037 14.3189 5.96704 14.0071 6.21178 13.7623C6.45652 13.5176 6.76834 13.3509 7.10781 13.2834C7.44728 13.2159 7.79914 13.2505 8.11892 13.383C8.43869 13.5154 8.712 13.7397 8.90429 14.0275C9.09658 14.3153 9.19922 14.6536 9.19922 14.9998C9.19922 15.4639 9.01484 15.909 8.68666 16.2372C8.35847 16.5654 7.91335 16.7498 7.44922 16.7498ZM20.5742 16.7498C20.2281 16.7498 19.8898 16.6471 19.602 16.4548C19.3142 16.2625 19.0899 15.9892 18.9574 15.6695C18.825 15.3497 18.7903 14.9978 18.8578 14.6583C18.9254 14.3189 19.092 14.0071 19.3368 13.7623C19.5815 13.5176 19.8933 13.3509 20.2328 13.2834C20.5723 13.2159 20.9241 13.2505 21.2439 13.383C21.5637 13.5154 21.837 13.7397 22.0293 14.0275C22.2216 14.3153 22.3242 14.6536 22.3242 14.9998C22.3242 15.4639 22.1398 15.909 21.8117 16.2372C21.4835 16.5654 21.0383 16.7498 20.5742 16.7498ZM25.3867 14.1248H23.9648C23.7691 13.3741 23.3302 12.7094 22.7168 12.2345C22.1034 11.7596 21.35 11.5012 20.5742 11.4998C20.4278 11.4998 20.2815 11.5108 20.1367 11.5326V7.99976H25.3867V14.1248Z" fill="white"/>
</svg>
