<svg width="28" height="28" viewBox="0 0 28 28" fill="none" xmlns="http://www.w3.org/2000/svg">
<g clip-path="url(#clip0_1303_869)">
<path d="M24.888 23.3334H3.11024C2.69768 23.3334 2.30202 23.1695 2.0103 22.8778C1.71858 22.5861 1.55469 22.1904 1.55469 21.7779V6.2223C1.55469 5.80974 1.71858 5.41408 2.0103 5.12236C2.30202 4.83064 2.69768 4.66675 3.11024 4.66675H24.888C25.3006 4.66675 25.6962 4.83064 25.988 5.12236C26.2797 5.41408 26.4436 5.80974 26.4436 6.2223V21.7779C26.4436 22.1904 26.2797 22.5861 25.988 22.8778C25.6962 23.1695 25.3006 23.3334 24.888 23.3334ZM3.11024 6.2223V21.7779H24.888V6.2223H3.11024Z" fill="white"/>
<path d="M6.99918 19.6776C6.83415 19.6776 6.67589 19.612 6.5592 19.4953C6.44251 19.3786 6.37695 19.2204 6.37695 19.0554V8.94424C6.37695 8.77922 6.44251 8.62096 6.5592 8.50427C6.67589 8.38758 6.83415 8.32202 6.99918 8.32202C7.1642 8.32202 7.32246 8.38758 7.43915 8.50427C7.55584 8.62096 7.6214 8.77922 7.6214 8.94424V19.0554C7.6214 19.2204 7.55584 19.3786 7.43915 19.4953C7.32246 19.612 7.1642 19.6776 6.99918 19.6776Z" fill="white"/>
<path d="M11.6044 19.6775C11.4394 19.6775 11.2811 19.612 11.1644 19.4953C11.0477 19.3786 10.9822 19.2203 10.9822 19.0553V8.94418C10.9822 8.77916 11.0477 8.62089 11.1644 8.50421C11.2811 8.38752 11.4394 8.32196 11.6044 8.32196C11.7694 8.32196 11.9277 8.38752 12.0444 8.50421C12.1611 8.62089 12.2266 8.77916 12.2266 8.94418V19.0553C12.2266 19.2203 12.1611 19.3786 12.0444 19.4953C11.9277 19.612 11.7694 19.6775 11.6044 19.6775Z" fill="white"/>
<path d="M16.3334 19.6775C16.1684 19.6775 16.0101 19.612 15.8934 19.4953C15.7767 19.3786 15.7112 19.2203 15.7112 19.0553V8.94418C15.7112 8.77916 15.7767 8.62089 15.8934 8.50421C16.0101 8.38752 16.1684 8.32196 16.3334 8.32196C16.4984 8.32196 16.6567 8.38752 16.7734 8.50421C16.8901 8.62089 16.9556 8.77916 16.9556 8.94418V19.0553C16.9556 19.2203 16.8901 19.3786 16.7734 19.4953C16.6567 19.612 16.4984 19.6775 16.3334 19.6775Z" fill="white"/>
<path d="M20.9992 19.6776C20.8342 19.6776 20.6759 19.612 20.5592 19.4953C20.4425 19.3786 20.377 19.2204 20.377 19.0554V8.94424C20.377 8.77922 20.4425 8.62096 20.5592 8.50427C20.6759 8.38758 20.8342 8.32202 20.9992 8.32202C21.1642 8.32202 21.3225 8.38758 21.4392 8.50427C21.5558 8.62096 21.6214 8.77922 21.6214 8.94424V19.0554C21.6214 19.2204 21.5558 19.3786 21.4392 19.4953C21.3225 19.612 21.1642 19.6776 20.9992 19.6776Z" fill="white"/>
</g>
<defs>
<clipPath id="clip0_1303_869">
<rect width="28" height="28" fill="white" transform="translate(0 -0.000244141)"/>
</clipPath>
</defs>
</svg>
