<svg width="28" height="28" viewBox="0 0 28 28" fill="none" xmlns="http://www.w3.org/2000/svg">
<path d="M13.5078 0.874756V5.74194H14C14.8148 5.74194 15.2578 6.38179 15.3016 7.03257C15.3234 7.36069 15.2359 7.66147 15.0445 7.87476C14.8531 8.09351 14.5469 8.25757 14 8.25757C13.7266 8.25757 13.393 8.10444 13.1469 7.85288C12.8953 7.60679 12.7422 7.27319 12.7422 6.99976H11.7578C11.7578 7.60132 12.0422 8.14272 12.4469 8.55288C12.857 8.95757 13.3984 9.24194 14 9.24194C14.7656 9.24194 15.3891 8.96851 15.7773 8.53101C16.1711 8.08804 16.3242 7.51382 16.2859 6.96694C16.2203 6.00991 15.5531 5.04304 14.4922 4.81116V0.874756H13.5078ZM10.8883 8.55835L3.35453 13.5076H5.14281L11.4242 9.37866L10.8883 8.55835ZM17.1117 8.55835L16.5758 9.37866L22.8594 13.5076H24.6422L17.1117 8.55835ZM2.24219 14.4919V26.6326H25.7578V14.4919H2.24219ZM4.32031 15.7498H5.30469V25.3748H4.32031V15.7498ZM6.94531 15.7498H7.92969V25.3748H6.94531V15.7498ZM9.57031 15.7498H10.5547V25.3748H9.57031V15.7498ZM12.1953 15.7498H13.1797V25.3748H12.1953V15.7498ZM14.8203 15.7498H15.8047V25.3748H14.8203V15.7498ZM17.4453 15.7498H18.4297V25.3748H17.4453V15.7498ZM20.0703 15.7498H21.0547V25.3748H20.0703V15.7498ZM22.6953 15.7498H23.6797V25.3748H22.6953V15.7498Z" fill="white"/>
</svg>
